<svg width="450" height="120" viewBox="0 0 450 120" fill="none" xmlns="http://www.w3.org/2000/svg">
<path opacity="0.15" d="M65 85C71.6274 85 77 83.6569 77 82C77 80.3431 71.6274 79 65 79C58.3726 79 53 80.3431 53 82C53 83.6569 58.3726 85 65 85Z" fill="#002D59"/>
<path d="M65 79C74 66 79 57 79 52C79 48.287 77.525 44.726 74.8995 42.1005C72.274 39.475 68.713 38 65 38C61.287 38 57.726 39.475 55.1005 42.1005C52.475 44.726 51 48.287 51 52C51 57 56 66 65 79Z" fill="#0056A3"/>
<path d="M65 57C67.7614 57 70 54.7614 70 52C70 49.2386 67.7614 47 65 47C62.2386 47 60 49.2386 60 52C60 54.7614 62.2386 57 65 57Z" fill="white"/>
<path d="M77 34.5C79.2967 35.8149 81.3097 37.5726 82.9221 39.6712C84.5346 41.7697 85.7145 44.1674 86.3935 46.7254C87.0725 49.2833 87.2371 51.9505 86.8778 54.5725C86.5184 57.1945 85.6422 59.7191 84.3 62" stroke="#B3E5FC" stroke-width="5" stroke-linecap="round"/>
<path d="M83 24C86.6764 26.1022 89.899 28.9132 92.481 32.2702C95.0629 35.6271 96.9528 39.4632 98.0411 43.556C99.1294 47.6488 99.3945 51.9169 98.821 56.1129C98.2474 60.3089 96.8467 64.3494 94.7 68" stroke="#2979FF" stroke-width="5" stroke-linecap="round"/>
<path d="M89 13.5C94.0562 16.3895 98.4884 20.2539 102.04 24.8692C105.591 29.4845 108.191 34.759 109.689 40.3866C111.186 46.0143 111.552 51.8833 110.764 57.6534C109.976 63.4234 108.051 68.9796 105.1 74" stroke="#002D59" stroke-width="5" stroke-linecap="round"/>
<path d="M159.36 81L150.892 65.63H148.514V81H138.596V40.284H155.242C158.451 40.284 161.177 40.8447 163.42 41.966C165.701 43.0873 167.403 44.634 168.524 46.606C169.645 48.5393 170.206 50.7047 170.206 53.102C170.206 55.8087 169.433 58.2253 167.886 60.352C166.378 62.4787 164.135 63.9867 161.158 64.876L170.554 81H159.36ZM148.514 58.612H154.662C156.479 58.612 157.833 58.1673 158.722 57.278C159.65 56.3887 160.114 55.132 160.114 53.508C160.114 51.9613 159.65 50.7433 158.722 49.854C157.833 48.9647 156.479 48.52 154.662 48.52H148.514V58.612ZM174.46 64.76C174.46 61.4347 175.079 58.5153 176.316 56.002C177.592 53.4887 179.313 51.5553 181.478 50.202C183.643 48.8487 186.06 48.172 188.728 48.172C191.009 48.172 193.001 48.636 194.702 49.564C196.442 50.492 197.776 51.71 198.704 53.218V48.636H208.622V81H198.704V76.418C197.737 77.926 196.384 79.144 194.644 80.072C192.943 81 190.951 81.464 188.67 81.464C186.041 81.464 183.643 80.7873 181.478 79.434C179.313 78.042 177.592 76.0893 176.316 73.576C175.079 71.024 174.46 68.0853 174.46 64.76ZM198.704 64.818C198.704 62.3433 198.008 60.3907 196.616 58.96C195.263 57.5293 193.6 56.814 191.628 56.814C189.656 56.814 187.974 57.5293 186.582 58.96C185.229 60.352 184.552 62.2853 184.552 64.76C184.552 67.2347 185.229 69.2067 186.582 70.676C187.974 72.1067 189.656 72.822 191.628 72.822C193.6 72.822 195.263 72.1067 196.616 70.676C198.008 69.2453 198.704 67.2927 198.704 64.818ZM213.825 64.76C213.825 61.4347 214.444 58.5153 215.681 56.002C216.957 53.4887 218.678 51.5553 220.843 50.202C223.009 48.8487 225.425 48.172 228.093 48.172C230.22 48.172 232.153 48.6167 233.893 49.506C235.672 50.3953 237.064 51.594 238.069 53.102V38.08H247.987V81H238.069V76.36C237.141 77.9067 235.807 79.144 234.067 80.072C232.366 81 230.375 81.464 228.093 81.464C225.425 81.464 223.009 80.7873 220.843 79.434C218.678 78.042 216.957 76.0893 215.681 73.576C214.444 71.024 213.825 68.0853 213.825 64.76ZM238.069 64.818C238.069 62.3433 237.373 60.3907 235.981 58.96C234.628 57.5293 232.965 56.814 230.993 56.814C229.021 56.814 227.339 57.5293 225.947 58.96C224.594 60.352 223.917 62.2853 223.917 64.76C223.917 67.2347 224.594 69.2067 225.947 70.676C227.339 72.1067 229.021 72.822 230.993 72.822C232.965 72.822 234.628 72.1067 235.981 70.676C237.373 69.2453 238.069 67.2927 238.069 64.818ZM253.19 64.76C253.19 61.4347 253.809 58.5153 255.046 56.002C256.322 53.4887 258.043 51.5553 260.208 50.202C262.374 48.8487 264.79 48.172 267.458 48.172C269.74 48.172 271.731 48.636 273.432 49.564C275.172 50.492 276.506 51.71 277.434 53.218V48.636H287.352V81H277.434V76.418C276.468 77.926 275.114 79.144 273.374 80.072C271.673 81 269.682 81.464 267.4 81.464C264.771 81.464 262.374 80.7873 260.208 79.434C258.043 78.042 256.322 76.0893 255.046 73.576C253.809 71.024 253.19 68.0853 253.19 64.76ZM277.434 64.818C277.434 62.3433 276.738 60.3907 275.346 58.96C273.993 57.5293 272.33 56.814 270.358 56.814C268.386 56.814 266.704 57.5293 265.312 58.96C263.959 60.352 263.282 62.2853 263.282 64.76C263.282 67.2347 263.959 69.2067 265.312 70.676C266.704 72.1067 268.386 72.822 270.358 72.822C272.33 72.822 273.993 72.1067 275.346 70.676C276.738 69.2453 277.434 67.2927 277.434 64.818ZM304.446 54.03C305.606 52.2513 307.056 50.8593 308.796 49.854C310.536 48.81 312.469 48.288 314.596 48.288V58.786H311.87C309.395 58.786 307.539 59.3273 306.302 60.41C305.064 61.454 304.446 63.31 304.446 65.978V81H294.528V48.636H304.446V54.03Z" fill="#0056A3"/>
<path d="M317.654 60.584C317.654 56.5627 318.524 52.986 320.264 49.854C322.004 46.6833 324.421 44.228 327.514 42.488C330.646 40.7093 334.184 39.82 338.128 39.82C342.962 39.82 347.099 41.096 350.54 43.648C353.982 46.2 356.282 49.68 357.442 54.088H346.538C345.726 52.3867 344.566 51.0913 343.058 50.202C341.589 49.3127 339.907 48.868 338.012 48.868C334.958 48.868 332.483 49.9313 330.588 52.058C328.694 54.1847 327.746 57.0267 327.746 60.584C327.746 64.1413 328.694 66.9833 330.588 69.11C332.483 71.2367 334.958 72.3 338.012 72.3C339.907 72.3 341.589 71.8553 343.058 70.966C344.566 70.0767 345.726 68.7813 346.538 67.08H357.442C356.282 71.488 353.982 74.968 350.54 77.52C347.099 80.0333 342.962 81.29 338.128 81.29C334.184 81.29 330.646 80.42 327.514 78.68C324.421 76.9013 322.004 74.446 320.264 71.314C318.524 68.182 317.654 64.6053 317.654 60.584ZM382.772 81.406C378.944 81.406 375.425 80.5167 372.216 78.738C369.045 76.9593 366.513 74.4847 364.618 71.314C362.762 68.1047 361.834 64.5087 361.834 60.526C361.834 56.5433 362.762 52.9667 364.618 49.796C366.513 46.6253 369.045 44.1507 372.216 42.372C375.425 40.5933 378.944 39.704 382.772 39.704C386.6 39.704 390.099 40.5933 393.27 42.372C396.479 44.1507 398.993 46.6253 400.81 49.796C402.666 52.9667 403.594 56.5433 403.594 60.526C403.594 64.5087 402.666 68.1047 400.81 71.314C398.954 74.4847 396.441 76.9593 393.27 78.738C390.099 80.5167 386.6 81.406 382.772 81.406ZM382.772 72.358C386.02 72.358 388.611 71.2753 390.544 69.11C392.516 66.9447 393.502 64.0833 393.502 60.526C393.502 56.93 392.516 54.0687 390.544 51.942C388.611 49.7767 386.02 48.694 382.772 48.694C379.485 48.694 376.856 49.7573 374.884 51.884C372.951 54.0107 371.984 56.8913 371.984 60.526C371.984 64.122 372.951 67.0027 374.884 69.168C376.856 71.2947 379.485 72.358 382.772 72.358Z" fill="#002D59"/>
</svg>
